<svg width="28" height="26" viewBox="0 0 28 26" fill="none" xmlns="http://www.w3.org/2000/svg">
<path fill-rule="evenodd" clip-rule="evenodd" d="M7.30158 11.1885H0.501842V13.5506C0.501842 14.1347 0.97848 14.6117 1.56205 14.6117H4.00791L5.46686 15.3486L7.30164 14.6117V11.1885H7.30158Z" fill="#FFEF60"/>
<path fill-rule="evenodd" clip-rule="evenodd" d="M6.24143 7.76074H1.5621C0.978533 7.76074 0.501895 8.23775 0.501895 8.82179V10.577H7.30164V8.82179C7.30164 8.23775 6.825 7.76074 6.24143 7.76074Z" fill="#FFEF60"/>
<path fill-rule="evenodd" clip-rule="evenodd" d="M7.30164 10.0479H0.501895V11.7159H7.30164V10.0479Z" fill="#FF814E"/>
<path fill-rule="evenodd" clip-rule="evenodd" d="M1.92351 10.048H1.05273H0.504264V8.82184C0.504264 8.42278 0.727334 8.07421 1.05273 7.89378C1.20549 7.80971 1.37964 7.76074 1.56452 7.76074H2.98376C2.4002 7.76074 1.92356 8.23775 1.92356 8.82179V10.048H1.92351Z" fill="#FFCD1B"/>
<path fill-rule="evenodd" clip-rule="evenodd" d="M1.91846 11.7159H1.04768H0.499216V11.1884V10.5769V10.0479H1.04768H1.91846V10.5769V11.1884V11.7159Z" fill="#FF5A17"/>
<path fill-rule="evenodd" clip-rule="evenodd" d="M1.92357 11.7158V13.5506C1.92357 14.1346 2.4002 14.6116 2.98376 14.6116H1.56454C1.37971 14.6116 1.20556 14.5642 1.05275 14.4801C0.727356 14.2982 0.50429 13.9496 0.50429 13.5506V11.7158H1.05275H1.92357Z" fill="#FFCD1B"/>
<path fill-rule="evenodd" clip-rule="evenodd" d="M7.30118 14.6119H4.00746V16.127C4.00746 16.4909 4.30534 16.7875 4.6674 16.7875H15.3914C15.3914 15.835 15.3914 15.3503 14.6627 15.3503L13.2114 15.3488C12.2978 15.3473 11.6989 15.1133 11.3644 14.6118H7.30118V14.6119Z" fill="#635448"/>
<path fill-rule="evenodd" clip-rule="evenodd" d="M14.0968 16.7876H4.66633C4.11331 17.7508 3.66874 18.9082 4.05221 21.1221C4.69384 18.9388 11.211 19.8103 11.8801 22.3299H19.0709C19.3429 21.7137 19.5995 21.1052 19.8241 20.4906H17.7969C13.6965 18.9433 15.0149 19.6329 14.0968 16.7876Z" fill="#FF8C5E"/>
<path fill-rule="evenodd" clip-rule="evenodd" d="M14.6776 10.8691C14.5371 11.6091 14.3461 12.3385 14.1323 12.9592L12.0593 13.7714L9.74782 12.9592C9.8288 8.58494 11.4634 6.48728 12.8536 5.80844C13.3547 5.42691 13.868 5.2832 13.868 5.2832C13.868 5.2832 14.5432 6.36345 14.5784 6.36345C14.8381 6.98113 14.9359 7.78688 14.9191 8.65682L14.6776 10.8691Z" fill="#FFFAFA"/>
<path fill-rule="evenodd" clip-rule="evenodd" d="M9.74796 12.959H14.1324C15.1423 13.0691 16.3843 13.8381 16.3843 16.2202V18.7169L15.3893 19.3096L14.0958 18.7169V16.7874C14.0958 15.8349 14.0958 15.3502 13.3671 15.3502L11.9158 15.3487C11.0023 15.3471 10.4034 15.1132 10.0689 14.6117C9.81064 14.2249 9.71134 13.6791 9.74796 12.959Z" fill="#FF8086"/>
<path fill-rule="evenodd" clip-rule="evenodd" d="M9.74835 12.9588C9.82933 8.58459 11.464 6.48694 12.8542 5.80811C13.0604 5.95333 13.2896 6.07261 13.5416 6.16128C12.3103 7.09237 11.0759 9.17323 11.0057 12.9588H9.74835Z" fill="#FFC8C8"/>
<path fill-rule="evenodd" clip-rule="evenodd" d="M9.74895 12.959H11.0062C10.9695 13.6791 11.0688 14.2249 11.327 14.6118C11.5378 14.9283 11.8556 15.1958 12.291 15.3487H11.9167C11.0031 15.3472 10.4043 15.1132 10.0697 14.6118C9.81162 14.2249 9.71233 13.6791 9.74895 12.959Z" fill="#F76672"/>
<path fill-rule="evenodd" clip-rule="evenodd" d="M11.8771 22.3299C11.8771 20.0687 10.0851 18.2676 7.87454 18.2676C6.07644 18.2676 4.55487 19.4601 4.04919 21.1221C3.9453 21.463 3.88419 21.8254 3.87352 22.2015C3.86892 22.3483 3.96978 22.3299 4.10726 22.3299C6.69668 22.3299 9.28766 22.3284 11.8771 22.3299Z" fill="#FF8C5D"/>
<path fill-rule="evenodd" clip-rule="evenodd" d="M10.8745 22.3296H4.78206C4.86911 23.9716 6.19973 25.2774 7.82829 25.2774C9.45684 25.2774 10.7875 23.9716 10.8745 22.3296Z" fill="#2A333E"/>
<path fill-rule="evenodd" clip-rule="evenodd" d="M26.3452 21.6802L21.1037 22.8865C21.4367 24.3344 22.8804 25.2395 24.3271 24.9062C25.7753 24.5729 26.6782 23.1281 26.3452 21.6802Z" fill="#2A333E"/>
<path fill-rule="evenodd" clip-rule="evenodd" d="M26.7374 20.2108C25.9965 19.1329 24.7102 18.5076 23.3658 18.6421C20.9948 19.1436 20.2233 20.5609 20.069 22.3284C20.0721 22.5684 20.0981 22.81 20.15 23.0515C20.1653 23.1188 20.2096 23.0913 20.283 23.0745L21.1034 22.8864L26.3449 21.6801L26.7375 21.5899L27.2859 21.463C27.1805 21.0012 26.991 20.5793 26.7374 20.2108Z" fill="#FFFAFA"/>
<path fill-rule="evenodd" clip-rule="evenodd" d="M23.3672 18.6359L21.2498 11.3094L20.2965 10.8828L19.2302 11.3094C20.6311 15.1929 20.24 17.9036 19.2943 20.4905C19.0682 21.1052 18.8116 21.7137 18.5412 22.3298H20.0643L23.3672 18.6359Z" fill="#FF814E"/>
<path fill-rule="evenodd" clip-rule="evenodd" d="M16.8142 3.09443L14.3301 2.56543C14.0781 2.58834 13.357 3.19383 13.357 3.57301L13.8855 6.26082C14.1055 6.32658 14.3393 6.36325 14.5806 6.36325C15.9036 6.36325 16.9761 5.28845 16.9761 3.96437C16.9761 3.65708 16.9196 3.36349 16.8142 3.09443Z" fill="#FFECE4"/>
<path fill-rule="evenodd" clip-rule="evenodd" d="M17.6125 3.09446C17.6125 1.38513 16.259 0.00146484 14.5877 0.00146484C12.9164 0.00146484 11.5629 1.38513 11.5629 3.09446C11.5629 4.22278 12.0212 5.22575 12.8523 5.80828C13.1486 6.01774 13.4939 6.17218 13.8819 6.26085V3.57298C13.8819 3.1938 14.0744 3.11737 14.3265 3.09441H16.8105H17.6125V3.09446Z" fill="#FF8C5D"/>
<path fill-rule="evenodd" clip-rule="evenodd" d="M16.1725 0.458589C15.7126 0.168087 15.1703 0.00146484 14.5898 0.00146484C12.9185 0.00146484 11.565 1.38513 11.565 3.09446C11.565 4.22278 12.0233 5.22575 12.8544 5.80828C13.0652 5.95659 13.2989 6.07738 13.5556 6.16605C12.9415 5.54377 12.6084 4.65092 12.6084 3.66626C12.6084 1.8805 14.0246 0.432589 15.7708 0.432589C15.9067 0.432589 16.0411 0.440227 16.1725 0.458589Z" fill="#FF5A17"/>
<path fill-rule="evenodd" clip-rule="evenodd" d="M16.387 18.7168H14.0984V20.1586C14.0984 20.4675 14.2665 20.4904 14.514 20.4904H17.7985C17.8643 19.044 16.9889 18.7168 16.387 18.7168Z" fill="#635448"/>
<path fill-rule="evenodd" clip-rule="evenodd" d="M19.2983 20.4902C20.2439 17.9033 20.635 15.1925 19.2341 11.3091H20.0194C20.0224 11.3091 20.0255 11.3091 20.0285 11.3091H20.3111C21.712 15.1925 21.3225 17.9033 20.3753 20.4902C20.1507 21.1049 19.8941 21.7133 19.6221 22.3295H19.0722H18.5451C18.8155 21.7133 19.0722 21.1048 19.2983 20.4902Z" fill="#FF5A17"/>
<path fill-rule="evenodd" clip-rule="evenodd" d="M20.0703 22.3282L23.367 18.642C23.7077 18.6084 24.0453 18.6221 24.3707 18.6818L21.2023 22.2242C21.2053 22.4306 21.2252 22.6401 21.2649 22.8495L21.1045 22.8862L20.2841 23.0743C20.2108 23.0911 20.1665 23.1187 20.1512 23.0514C20.0993 22.8098 20.0733 22.5683 20.0703 22.3282Z" fill="#FFC8C8"/>
<path fill-rule="evenodd" clip-rule="evenodd" d="M4.66675 16.7876H14.0972V17.6178H6.34871C5.7178 17.6178 5.41835 17.8899 5.17237 18.4419C4.96002 18.9205 4.95542 19.0764 4.85921 19.6543C4.49714 20.0748 4.21909 20.5732 4.05258 21.1221C3.66916 18.9082 4.11373 17.7508 4.66675 16.7876Z" fill="#FF5A17"/>
<path fill-rule="evenodd" clip-rule="evenodd" d="M4.85837 19.6543C5.59166 18.8027 6.67175 18.2676 7.87708 18.2676C8.17956 18.2676 8.47289 18.3012 8.75549 18.3639C6.95127 18.7721 5.68939 20.3652 5.63441 22.2015C5.63137 22.3024 5.6772 22.3253 5.75049 22.3299H4.78042H4.10975C3.97227 22.3299 3.87141 22.3483 3.87601 22.2015C3.88668 21.8254 3.94779 21.463 4.05168 21.1221C4.05472 21.1113 4.0578 21.1022 4.06084 21.093C4.06084 21.093 4.06084 21.093 4.06084 21.0915C4.22892 20.5548 4.50237 20.0671 4.85837 19.6543Z" fill="#FF5A17"/>
<path fill-rule="evenodd" clip-rule="evenodd" d="M21.2648 22.8498L26.3459 21.6802C26.4024 21.9202 26.4223 22.1618 26.4131 22.3973L22.3801 23.3253L22.2212 23.362C22.3709 24.0194 22.7513 24.5652 23.257 24.9337C22.2258 24.7518 21.3534 23.972 21.1044 22.8865L21.2648 22.8498Z" fill="#635448"/>
<path fill-rule="evenodd" clip-rule="evenodd" d="M5.75104 22.3296H10.8734C10.8566 22.6507 10.7909 22.9596 10.6855 23.2485H7.11681H6.14674C6.18493 23.9671 6.4599 24.6199 6.89379 25.129C5.71593 24.7422 4.84976 23.6429 4.78102 22.3296H5.75104V22.3296Z" fill="#635448"/>
<path fill-rule="evenodd" clip-rule="evenodd" d="M4.00647 16.127V14.6118H6.0765V16.127C6.0765 16.4909 6.37438 16.7874 6.73645 16.7874H4.66642C4.30435 16.7875 4.00647 16.4909 4.00647 16.127Z" fill="#2A333E"/>
<path fill-rule="evenodd" clip-rule="evenodd" d="M16.9612 3.70736H14.9202C14.6681 3.73028 14.4756 3.80828 14.4756 4.18746V6.36003C14.2709 6.35087 14.0723 6.31723 13.8829 6.26063V3.57281C13.8829 3.19364 14.0753 3.1172 14.3274 3.09424H16.8115C16.8863 3.28691 16.9383 3.49329 16.9612 3.70736Z" fill="#FFDDCE"/>
<path fill-rule="evenodd" clip-rule="evenodd" d="M21.6956 9.00206L18.8373 9.94691C18.6967 10.0723 18.8556 11.3505 18.9503 11.3092H21.2541H22.2731V9.20541C22.2731 8.79108 22.0576 8.88278 21.6956 9.00206Z" fill="#FFE07D"/>
<path fill-rule="evenodd" clip-rule="evenodd" d="M17.5071 11.3092H17.747H18.9523C19.7284 11.3092 19.7513 10.0218 18.8393 9.94688L17.5071 9.83984L17.1497 10.5967L17.5071 11.3092Z" fill="#FFECE4"/>
<path fill-rule="evenodd" clip-rule="evenodd" d="M14.9206 8.65656L14.4424 8.24526C13.2447 7.21325 11.7307 8.9547 13.3318 9.99435L14.6792 10.8689L15.3575 11.3092H17.5039V9.83991L16.1703 9.73136L14.9206 8.65656Z" fill="#FF8086"/>
<path fill-rule="evenodd" clip-rule="evenodd" d="M17.5067 11.3092V10.5967H17.7924H17.9467H18.1881H19.3934C19.4392 10.5967 19.482 10.5937 19.5233 10.5845C19.5676 10.9392 19.3674 11.3092 18.9519 11.3092H17.7465H17.5067Z" fill="#FFDDCE"/>
<path fill-rule="evenodd" clip-rule="evenodd" d="M13.3318 9.99463C12.3632 9.36472 12.5343 8.4795 13.0858 8.10645C13.0415 8.48866 13.2233 8.92747 13.7732 9.28373L14.8228 9.96408L15.1191 10.1583L15.7975 10.5971H17.5039V11.3096H15.3575L14.6792 10.8692L13.3318 9.99463Z" fill="#F76672"/>
<path fill-rule="evenodd" clip-rule="evenodd" d="M18.837 9.94705L19.9874 9.56787C20.3723 9.98069 20.5587 10.7849 20.3112 11.3093H19.2342H18.9501C19.3656 11.3093 19.5657 10.9393 19.5215 10.5846C19.4817 10.2773 19.2602 9.9822 18.837 9.94705Z" fill="#FFC269"/>
</svg>
